<svg width="56.383698" height="56.383667" viewBox="0 0 56.3837 56.3837" fill="none" xmlns="http://www.w3.org/2000/svg" xmlns:xlink="http://www.w3.org/1999/xlink">
	<desc>
			Created with Pixso.
	</desc>
	<defs/>
	<path id="Vector" d="M48.03 56.38L8.35 56.38C3.72 56.38 0 52.66 0 48.03L0 8.35C0 3.72 3.72 0 8.35 0L48.03 0C52.66 0 56.38 3.72 56.38 8.35L56.38 48.03C56.38 52.66 52.57 56.38 48.03 56.38Z" fill="#231815" fill-opacity="1.000000" fill-rule="nonzero"/>
	<path id="Vector" d="M27.78 18.24C27.78 18.24 33.32 14.89 36.68 12.98C40.04 11.07 41.94 10.44 43.85 10.25C45.76 10.16 47.93 11.16 47.93 11.16L41.85 7.35C41.85 7.35 41.03 6.8 38.76 7.08C36.49 7.35 35.31 7.99 33.86 8.71C32.41 9.53 22.69 15.25 22.69 15.25L27.78 18.24Z" fill="#FFFFFF" fill-opacity="1.000000" fill-rule="nonzero"/>
	<path id="Vector" d="M42.31 15.7C42.31 15.7 45.12 19.61 42.94 26.51C40.76 33.41 35.68 37.31 35.31 37.58C35.04 37.86 31.86 39.67 31.86 39.67L31.95 45.12C31.95 45.12 42.12 41.58 46.39 31.77C50.2 23.15 47.75 18.52 45.85 16.52C44.76 15.34 42.31 15.7 42.31 15.7Z" fill="#FFFFFF" fill-opacity="1.000000" fill-rule="nonzero"/>
	<path id="Vector" d="M27.78 45.03L22.69 42.03L22.69 15.34L27.78 18.24L27.78 45.03Z" fill="#FFFFFF" fill-opacity="1.000000" fill-rule="nonzero"/>
	<path id="Vector" d="M12.25 37.22L7.17 34.13L7.17 7.53L12.16 10.35L12.25 37.22Z" fill="#FFFFFF" fill-opacity="1.000000" fill-rule="nonzero"/>
	<path id="Vector" d="M7.17 34.13C7.17 34.13 5.9 45.39 15.07 49.48C20.33 51.84 24.24 50.48 26.05 48.66C27.51 47.21 27.69 45.03 27.69 45.03L22.6 41.94C22.6 41.94 22.6 43.03 21.79 43.85C20.88 44.85 19.43 45.85 16.16 44.21C11.98 42.03 12.16 37.22 12.16 37.22L7.17 34.13Z" fill="#FFFFFF" fill-opacity="1.000000" fill-rule="nonzero"/>
	<path id="Vector" d="M12.16 10.35L16.25 8.26L11.62 5.72L7.17 7.53L12.16 10.35Z" fill="#FFFFFF" fill-opacity="1.000000" fill-rule="nonzero"/>
</svg>
