<svg width="239.000092" height="62.100098" viewBox="0 0 239 62.1001" fill="none" xmlns="http://www.w3.org/2000/svg" xmlns:xlink="http://www.w3.org/1999/xlink">
	<desc>
			Created with Pixso.
	</desc>
	<defs/>
	<path id="Vector" d="M52.9 62.1L9.2 62.1C4.1 62.1 0 58 0 52.89L0 9.19C0 4.1 4.1 0 9.2 0L52.9 0C58 0 62.1 4.1 62.1 9.19L62.1 52.89C62.1 58 57.9 62.1 52.9 62.1Z" fill="#FFFFFF" fill-opacity="1.000000" fill-rule="nonzero"/>
	<path id="Vector" d="M30.6 20.1C30.6 20.1 36.7 16.4 40.4 14.3C44.1 12.2 46.2 11.5 48.3 11.3C50.4 11.2 52.8 12.3 52.8 12.3L46.1 8.1C46.1 8.1 45.2 7.5 42.7 7.8C40.2 8.1 38.9 8.8 37.3 9.6C35.7 10.5 25 16.79 25 16.79L30.6 20.1Z" fill="#231815" fill-opacity="1.000000" fill-rule="nonzero"/>
	<path id="Vector" d="M46.59 17.3C46.59 17.3 49.69 21.6 47.29 29.2C44.89 36.8 39.29 41.1 38.89 41.4C38.59 41.7 35.09 43.7 35.09 43.7L35.19 49.7C35.19 49.7 46.39 45.8 51.09 35C55.29 25.5 52.59 20.4 50.49 18.2C49.29 16.9 46.59 17.3 46.59 17.3Z" fill="#231815" fill-opacity="1.000000" fill-rule="nonzero"/>
	<path id="Vector" d="M30.6 49.59L25 46.29L25 16.89L30.6 20.09L30.6 49.59Z" fill="#231815" fill-opacity="1.000000" fill-rule="nonzero"/>
	<path id="Vector" d="M13.5 41L7.89 37.6L7.89 8.3L13.4 11.4L13.5 41Z" fill="#231815" fill-opacity="1.000000" fill-rule="nonzero"/>
	<path id="Vector" d="M7.89 37.6C7.89 37.6 6.5 50 16.6 54.5C22.4 57.1 26.7 55.6 28.7 53.6C30.3 52 30.5 49.6 30.5 49.6L24.9 46.2C24.9 46.2 24.9 47.4 24 48.3C23 49.4 21.4 50.5 17.79 48.7C13.2 46.3 13.4 41 13.4 41L7.89 37.6Z" fill="#231815" fill-opacity="1.000000" fill-rule="nonzero"/>
	<path id="Vector" d="M13.4 11.4L17.9 9.1L12.8 6.3L7.89 8.3L13.4 11.4Z" fill="#231815" fill-opacity="1.000000" fill-rule="nonzero"/>
	<path id="Vector" d="M233.4 47.9L235.6 47.9L235.6 48.4L234.7 48.4L234.7 50.7L234.2 50.7L234.2 48.4L233.3 48.4L233.4 47.9Z" fill="#FFFFFF" fill-opacity="1.000000" fill-rule="nonzero"/>
	<path id="Vector" d="M236 47.9L236.6 47.9L237.5 49.7L238.4 47.9L239 47.9L239 50.7L238.5 50.7L238.5 48.7L237.6 50.4L237.3 50.4L236.4 48.7L236.4 50.7L236 50.7L236 47.9Z" fill="#FFFFFF" fill-opacity="1.000000" fill-rule="nonzero"/>
	<path id="Vector" d="M230.4 48.1C230.4 49.1 230.4 49.9 230.4 50.9C226.3 50.9 222.2 50.9 218.2 50.9C215.2 50.9 215.2 50.9 215.2 53.8C215.2 58.1 215.2 58.1 219.4 58.1C221.6 58.1 223.8 58 225.9 58.1C227.5 58.2 228 57.6 227.8 56.1C227.7 55.2 227.8 54.2 227.8 53.1C228.8 53.1 229.7 53.1 230.9 53.1C230.9 54.8 231 56.4 230.9 58.1C230.8 59.8 229.7 60.8 228.1 60.9C223.7 61 219.4 61 215 60.9C213 60.9 212 59.6 212 57.6C212 55.6 212 53.5 212 51.5C212 49.3 213 48.2 215.1 48.1C220.2 48 225.2 48.1 230.4 48.1Z" fill="#FFFFFF" fill-opacity="1.000000" fill-rule="nonzero"/>
	<path id="Vector" d="M75.4 26.9L78.5 26.9L78.5 36.5C78.5 36.7 78.7 36.9 78.9 36.9L91 36.9C91.2 36.9 91.4 36.7 91.4 36.5L91.4 26.9L94.6 26.9C94.6 30.4 94.7 33.8 94.6 37.2C94.6 38.8 93.5 39.8 92 39.8C87.2 39.9 82.9 39.9 78 39.8C76.4 39.8 75.4 38.7 75.4 37C75.3 33.7 75.4 30.3 75.4 26.9Z" fill="#FFFFFF" fill-opacity="1.000000" fill-rule="nonzero"/>
	<path id="Vector" d="M145.2 48.1L148.3 48.1L148.3 57.5C148.3 57.7 148.5 57.9 148.7 57.9L162.7 57.9L162.7 60.8C162.7 60.8 148.89 60.8 148.8 60.8C146 60.8 145.1 59.7 145.1 57.2C145.2 54.5 145.2 51.1 145.2 48.1Z" fill="#FFFFFF" fill-opacity="1.000000" fill-rule="nonzero"/>
	<path id="Vector" d="M185.5 48.2C186.5 48.2 187.3 48.2 188.4 48.2C188.4 52.4 188.4 56.6 188.4 60.9C187.5 60.9 186.6 60.9 185.5 60.9C185.5 56.6 185.5 52.5 185.5 48.2Z" fill="#FFFFFF" fill-opacity="1.000000" fill-rule="nonzero"/>
	<path id="Vector" d="M138.5 33.1C138.5 33.1 139 32.3 139 31.9C139.6 29.5 138.7 27 136.3 26.9C130.89 26.7 125.5 26.8 119.9 26.8C119.9 31.1 119.9 35.3 119.9 39.7C125 39.7 130 39.7 135 39.7C138.89 39.7 139.5 36.8 138.89 34.1C138.89 33.8 138.5 33.1 138.5 33.1ZM135.2 36.8L123.3 36.9L123.3 34.5C123.3 34.5 133 34.5 135.2 34.5C135.39 34.5 135.6 34.7 135.6 34.9L135.6 36.4C135.6 36.6 135.39 36.8 135.2 36.8ZM135.2 32.1L123.3 32.2L123.3 29.8C123.3 29.8 133 29.8 135.2 29.8C135.39 29.8 135.6 30 135.6 30.2L135.6 31.7C135.6 31.9 135.39 32.1 135.2 32.1Z" fill="#FFFFFF" fill-opacity="1.000000" fill-rule="nonzero"/>
	<path id="Vector" d="M155.89 29.3C154.89 27.3 153.39 26.9 151.39 26.9C149.3 26.9 147.89 27.3 146.89 29.3C146.89 29.3 143.1 36.1 140.89 39.8L144.8 39.8L150.2 30C150.3 29.9 150.39 29.8 150.6 29.8L152.39 29.8C152.5 29.8 152.7 29.9 152.8 30L158.2 39.8C158.2 39.8 161.1 39.8 162.1 39.8C159.7 36.1 155.8 29.3 155.89 29.3Z" fill="#FFFFFF" fill-opacity="1.000000" fill-rule="nonzero"/>
	<path id="Vector" d="M182.5 26.9L179.2 26.9C179.2 30.1 179.2 33.3 179.2 36.9C179.2 36.9 178.7 37 178 36.4C176.3 34.8 172.5 30.2 172 29.7C172 29.7 172 29.6 171.9 29.6C171.6 29.2 171.3 28.9 171.2 28.8C170 27.6 169.3 27 167.1 26.8L164.2 26.8C164.2 30.7 164.2 35.8 164.2 39.7L167.5 39.7C167.5 36.5 167.5 33.3 167.5 29.7C167.5 29.7 168 29.6 168.7 30.2C170.4 31.8 174.2 36.4 174.7 36.9C174.7 36.9 174.7 37 174.8 37C175.1 37.4 175.4 37.7 175.5 37.8C176.7 39 177.4 39.6 179.6 39.8L182.5 39.8C182.5 35.9 182.5 30.8 182.5 26.9Z" fill="#FFFFFF" fill-opacity="1.000000" fill-rule="nonzero"/>
	<path id="Vector" d="M94.5 50.6C94.5 49.1 93.4 48.2 91.7 48.2C89.9 48.2 88 48.2 86.2 48.2C82.5 48.2 78.8 48.2 75.1 48.2C75.1 52.5 75.1 56.6 75.1 60.9C78.7 60.9 82.1 60.9 85.5 60.9C87.6 60.9 89.7 60.9 91.7 60.9C93.3 60.9 94.4 59.9 94.5 58.5C94.5 57.9 94.5 51.2 94.5 50.6ZM91.4 52.3L91.4 56.8L91.4 57.7C91.4 57.9 91.2 58.1 91 58.1L78.6 58.1C78.4 58.1 78.2 57.9 78.2 57.7L78.2 51.5C78.2 51.3 78.4 51.1 78.6 51.1L91.2 51.1C91.4 51.1 91.4 51.3 91.4 51.5L91.4 52.3Z" fill="#FFFFFF" fill-opacity="1.000000" fill-rule="nonzero"/>
	<path id="Vector" d="M209.4 48.1L206.1 48.1C206.1 51.3 206.1 54.5 206.1 58.1C206.1 58.1 205.6 58.2 204.9 57.6C203.2 56 199.4 51.39 198.9 50.89C198.9 50.89 198.9 50.89 198.8 50.8C198.5 50.39 198.2 50.1 198.1 50C196.9 48.8 196.2 48.2 194 48L191.1 48C191.1 51.89 191.1 57 191.1 60.89L194.4 60.89C194.4 57.7 194.4 54.5 194.4 50.89C194.4 50.89 194.9 50.8 195.6 51.39C197.3 53 201.1 57.6 201.6 58.1C201.6 58.1 201.6 58.1 201.7 58.2C202 58.6 202.3 58.89 202.4 59C203.6 60.2 204.3 60.8 206.5 61L209.4 61C209.4 57.1 209.4 52 209.4 48.1Z" fill="#FFFFFF" fill-opacity="1.000000" fill-rule="nonzero"/>
	<path id="Vector" d="M119 48.1C118.5 50.8 117.7 54.3 117.1 57C117 57.6 116.8 58 116.3 58C115.7 58 115.7 57.6 115.4 57C115.4 57 113.4 51.7 112.4 49.4C112 48.5 111.4 48.1 110.5 48.1C110.1 48.1 109.7 48.1 109.4 48.1L109.3 48.1L109.2 48.1C108.9 48.1 108.5 48.1 108.1 48.1C107.2 48.1 106.6 48.5 106.2 49.4C105.2 51.7 103.2 57 103.2 57C103 57.6 102.9 58 102.3 58C101.8 58 101.6 57.6 101.5 57C100.9 54.2 100.2 50.8 99.6 48.1C98.4 48.1 97.4 48.1 96.2 48.1C97 51.6 97.8 54.9 98.5 58.1C98.8 59.5 99.2 60.9 101 60.8C101.8 60.8 102.9 60.8 103.7 60.8C104.7 60.8 105.2 60.1 105.7 58.7L108.6 51C108.9 50.2 109 50.1 109.2 50.1C109.4 50.1 109.6 50.2 109.8 51L112.7 58.7C113.2 60.1 113.7 60.8 114.7 60.8C115.5 60.8 116.5 60.8 117.4 60.8C119.2 60.8 119.6 59.5 119.9 58.1C120.6 54.9 121.4 51.5 122.2 48.1C121.2 48.1 120.2 48.1 119 48.1Z" fill="#FFFFFF" fill-opacity="1.000000" fill-rule="nonzero"/>
	<path id="Vector" d="M141.39 53.4L127.1 53.4C126.8 53.4 126.6 53.2 126.6 53L126.6 51.5C126.6 51.3 126.8 51.1 127.1 51.1C129.5 51.1 138.8 51.1 141.39 51.1L142.1 51.1C142.1 50.1 142.1 49.2 142.1 48.2C136.6 48.2 131.2 48.1 125.7 48.3C123.4 48.4 122.8 50.5 122.8 53.1C122.8 53.5 122.8 55.2 122.8 55.6C122.8 58.3 123 61.1 126.9 61.1C131.89 61.1 136.89 61.1 142 61.1C142 60.1 142 59.1 142 58.2L127 58.2C126.7 58.2 126.5 58 126.5 57.8L126.5 56.1C126.5 55.9 126.7 55.7 127 55.7C129.7 55.7 142 55.7 142 55.7C142 54.9 142 54.1 142 53.4L141.39 53.4Z" fill="#FFFFFF" fill-opacity="1.000000" fill-rule="nonzero"/>
	<path id="Vector" d="M165 48.1L168.1 48.1L168.1 57.5C168.1 57.7 168.3 57.9 168.5 57.9L182.5 57.9L182.5 60.8C182.5 60.8 168.7 60.8 168.6 60.8C165.8 60.8 164.9 59.7 164.9 57.2C165 54.5 165 51.1 165 48.1Z" fill="#FFFFFF" fill-opacity="1.000000" fill-rule="nonzero"/>
	<path id="Vector" d="M111.6 34.8L113.1 34.8C115.8 34.7 116.1 33.3 116.1 30.89C116.1 28.7 115.5 27.1 113 27L99.9 27L96.9 27L96.9 39.89L99.9 39.89L99.9 34.89L107.2 34.89L112.6 39.89L116.8 39.89C116.8 39.8 111.6 34.8 111.6 34.8ZM100 32.1L100 29.7C100.8 29.7 109.9 29.7 112 29.7C112.2 29.7 112.4 29.89 112.4 30.1L112.4 31.6C112.4 31.8 112.2 32 112 32L100 32.1Z" fill="#FFFFFF" fill-opacity="1.000000" fill-rule="nonzero"/>
</svg>
