<svg width="217.000153" height="56.383667" viewBox="0 0 217 56.3837" fill="none" xmlns="http://www.w3.org/2000/svg" xmlns:xlink="http://www.w3.org/1999/xlink">
	<desc>
			Created with Pixso.
	</desc>
	<defs/>
	<path id="Vector" d="M48.03 56.38L8.35 56.38C3.72 56.38 0 52.66 0 48.03L0 8.35C0 3.72 3.72 0 8.35 0L48.03 0C52.66 0 56.38 3.72 56.38 8.35L56.38 48.03C56.38 52.66 52.57 56.38 48.03 56.38Z" fill="#231815" fill-opacity="1.000000" fill-rule="nonzero"/>
	<path id="Vector" d="M27.78 18.24C27.78 18.24 33.32 14.89 36.68 12.98C40.04 11.07 41.94 10.44 43.85 10.25C45.76 10.16 47.93 11.16 47.93 11.16L41.85 7.35C41.85 7.35 41.03 6.8 38.76 7.08C36.49 7.35 35.31 7.99 33.86 8.71C32.41 9.53 22.69 15.25 22.69 15.25L27.78 18.24Z" fill="#FFFFFF" fill-opacity="1.000000" fill-rule="nonzero"/>
	<path id="Vector" d="M42.31 15.7C42.31 15.7 45.12 19.61 42.94 26.51C40.76 33.41 35.68 37.31 35.31 37.58C35.04 37.86 31.86 39.67 31.86 39.67L31.95 45.12C31.95 45.12 42.12 41.58 46.39 31.77C50.2 23.15 47.75 18.52 45.85 16.52C44.76 15.34 42.31 15.7 42.31 15.7Z" fill="#FFFFFF" fill-opacity="1.000000" fill-rule="nonzero"/>
	<path id="Vector" d="M27.78 45.03L22.69 42.03L22.69 15.34L27.78 18.24L27.78 45.03Z" fill="#FFFFFF" fill-opacity="1.000000" fill-rule="nonzero"/>
	<path id="Vector" d="M12.25 37.22L7.17 34.13L7.17 7.53L12.16 10.35L12.25 37.22Z" fill="#FFFFFF" fill-opacity="1.000000" fill-rule="nonzero"/>
	<path id="Vector" d="M7.17 34.13C7.17 34.13 5.9 45.39 15.07 49.48C20.33 51.84 24.24 50.48 26.05 48.66C27.51 47.21 27.69 45.03 27.69 45.03L22.6 41.94C22.6 41.94 22.6 43.03 21.79 43.85C20.88 44.85 19.43 45.85 16.16 44.21C11.98 42.03 12.16 37.22 12.16 37.22L7.17 34.13Z" fill="#FFFFFF" fill-opacity="1.000000" fill-rule="nonzero"/>
	<path id="Vector" d="M12.16 10.35L16.25 8.26L11.62 5.72L7.17 7.53L12.16 10.35Z" fill="#FFFFFF" fill-opacity="1.000000" fill-rule="nonzero"/>
	<path id="Vector" d="M211.91 43.49L213.91 43.49L213.91 43.94L213.09 43.94L213.09 46.03L212.64 46.03L212.64 43.94L211.82 43.94L211.91 43.49Z" fill="#231815" fill-opacity="1.000000" fill-rule="nonzero"/>
	<path id="Vector" d="M214.27 43.49L214.82 43.49L215.63 45.12L216.45 43.49L217 43.49L217 46.03L216.54 46.03L216.54 44.21L215.72 45.76L215.45 45.76L214.63 44.21L214.63 46.03L214.27 46.03L214.27 43.49Z" fill="#231815" fill-opacity="1.000000" fill-rule="nonzero"/>
	<path id="Vector" d="M209.19 43.67C209.19 44.58 209.19 45.3 209.19 46.21C205.46 46.21 201.74 46.21 198.11 46.21C195.39 46.21 195.39 46.21 195.39 48.84C195.39 52.75 195.39 52.75 199.2 52.75C201.2 52.75 203.19 52.66 205.1 52.75C206.55 52.84 207.01 52.29 206.83 50.93C206.74 50.11 206.83 49.21 206.83 48.21C207.73 48.21 208.55 48.21 209.64 48.21C209.64 49.75 209.73 51.2 209.64 52.75C209.55 54.29 208.55 55.2 207.1 55.29C203.1 55.38 199.2 55.38 195.2 55.29C193.39 55.29 192.48 54.11 192.48 52.29C192.48 50.48 192.48 48.57 192.48 46.75C192.48 44.76 193.39 43.76 195.3 43.67C199.93 43.58 204.47 43.67 209.19 43.67Z" fill="#231815" fill-opacity="1.000000" fill-rule="nonzero"/>
	<path id="Vector" d="M68.45 24.42L71.27 24.42L71.27 33.14C71.27 33.32 71.45 33.5 71.63 33.5L82.62 33.5C82.8 33.5 82.98 33.32 82.98 33.14L82.98 24.42L85.89 24.42C85.89 27.6 85.98 30.68 85.89 33.77C85.89 35.22 84.89 36.13 83.53 36.13C79.17 36.22 75.26 36.22 70.82 36.13C69.36 36.13 68.45 35.13 68.45 33.59C68.36 30.59 68.45 27.51 68.45 24.42Z" fill="#231815" fill-opacity="1.000000" fill-rule="nonzero"/>
	<path id="Vector" d="M131.83 43.67L134.64 43.67L134.64 52.2C134.64 52.38 134.83 52.57 135.01 52.57L147.72 52.57L147.72 55.2C147.72 55.2 135.19 55.2 135.1 55.2C132.56 55.2 131.74 54.2 131.74 51.93C131.83 49.48 131.83 46.39 131.83 43.67Z" fill="#231815" fill-opacity="1.000000" fill-rule="nonzero"/>
	<path id="Vector" d="M168.42 43.76C169.33 43.76 170.05 43.76 171.05 43.76C171.05 47.57 171.05 51.39 171.05 55.29C170.24 55.29 169.42 55.29 168.42 55.29C168.42 51.39 168.42 47.66 168.42 43.76Z" fill="#231815" fill-opacity="1.000000" fill-rule="nonzero"/>
	<path id="Vector" d="M125.75 30.05C125.75 30.05 126.2 29.32 126.2 28.96C126.75 26.78 125.93 24.51 123.75 24.42C118.85 24.24 113.94 24.33 108.86 24.33C108.86 28.23 108.86 32.05 108.86 36.04C113.49 36.04 118.03 36.04 122.57 36.04C126.11 36.04 126.65 33.41 126.11 30.96C126.11 30.68 125.75 30.05 125.75 30.05ZM122.75 33.41L111.95 33.5L111.95 31.32C111.95 31.32 120.75 31.32 122.75 31.32C122.93 31.32 123.11 31.5 123.11 31.68L123.11 33.04C123.11 33.23 122.93 33.41 122.75 33.41ZM122.75 29.14L111.95 29.23L111.95 27.05C111.95 27.05 120.75 27.05 122.75 27.05C122.93 27.05 123.11 27.23 123.11 27.42L123.11 28.78C123.11 28.96 122.93 29.14 122.75 29.14Z" fill="#231815" fill-opacity="1.000000" fill-rule="nonzero"/>
	<path id="Vector" d="M141.55 26.6C140.64 24.78 139.28 24.42 137.46 24.42C135.55 24.42 134.28 24.78 133.37 26.6C133.37 26.6 129.92 32.77 127.93 36.13L131.47 36.13L136.37 27.23C136.46 27.14 136.55 27.05 136.73 27.05L138.37 27.05C138.46 27.05 138.64 27.14 138.73 27.23L143.63 36.13C143.63 36.13 146.27 36.13 147.17 36.13C145 32.77 141.45 26.6 141.55 26.6Z" fill="#231815" fill-opacity="1.000000" fill-rule="nonzero"/>
	<path id="Vector" d="M165.7 24.42L162.7 24.42C162.7 27.32 162.7 30.23 162.7 33.5C162.7 33.5 162.25 33.59 161.61 33.04C160.07 31.59 156.62 27.42 156.16 26.96C156.16 26.96 156.16 26.87 156.07 26.87C155.8 26.51 155.53 26.23 155.44 26.14C154.35 25.05 153.71 24.51 151.71 24.33L149.08 24.33C149.08 27.87 149.08 32.5 149.08 36.04L152.08 36.04C152.08 33.14 152.08 30.23 152.08 26.96C152.08 26.96 152.53 26.87 153.17 27.42C154.71 28.87 158.16 33.04 158.61 33.5C158.61 33.5 158.61 33.59 158.71 33.59C158.98 33.95 159.25 34.22 159.34 34.32C160.43 35.41 161.07 35.95 163.06 36.13L165.7 36.13C165.7 32.59 165.7 27.96 165.7 24.42Z" fill="#231815" fill-opacity="1.000000" fill-rule="nonzero"/>
	<path id="Vector" d="M85.8 45.94C85.8 44.58 84.8 43.76 83.25 43.76C81.62 43.76 79.89 43.76 78.26 43.76C74.9 43.76 71.54 43.76 68.18 43.76C68.18 47.66 68.18 51.39 68.18 55.29C71.45 55.29 74.54 55.29 77.62 55.29C79.53 55.29 81.44 55.29 83.25 55.29C84.71 55.29 85.71 54.38 85.8 53.11C85.8 52.57 85.8 46.48 85.8 45.94ZM82.98 47.48L82.98 51.57L82.98 52.38C82.98 52.57 82.8 52.75 82.62 52.75L71.36 52.75C71.18 52.75 71 52.57 71 52.38L71 46.75C71 46.57 71.18 46.39 71.36 46.39L82.8 46.39C82.98 46.39 82.98 46.57 82.98 46.75L82.98 47.48Z" fill="#231815" fill-opacity="1.000000" fill-rule="nonzero"/>
	<path id="Vector" d="M190.12 43.67L187.12 43.67C187.12 46.57 187.12 49.48 187.12 52.75C187.12 52.75 186.67 52.84 186.03 52.29C184.49 50.84 181.04 46.66 180.59 46.21C180.59 46.21 180.59 46.21 180.5 46.12C180.22 45.76 179.95 45.48 179.86 45.39C178.77 44.3 178.14 43.76 176.14 43.58L173.5 43.58C173.5 47.12 173.5 51.75 173.5 55.29L176.5 55.29C176.5 52.38 176.5 49.48 176.5 46.21C176.5 46.21 176.96 46.12 177.59 46.66C179.13 48.12 182.58 52.29 183.04 52.75C183.04 52.75 183.04 52.75 183.13 52.84C183.4 53.2 183.67 53.47 183.76 53.56C184.85 54.65 185.49 55.2 187.49 55.38L190.12 55.38C190.12 51.84 190.12 47.21 190.12 43.67Z" fill="#231815" fill-opacity="1.000000" fill-rule="nonzero"/>
	<path id="Vector" d="M108.04 43.67C107.59 46.12 106.86 49.3 106.32 51.75C106.23 52.29 106.04 52.66 105.59 52.66C105.05 52.66 105.05 52.29 104.77 51.75C104.77 51.75 102.96 46.94 102.05 44.85C101.69 44.03 101.14 43.67 100.32 43.67C99.96 43.67 99.6 43.67 99.33 43.67L99.23 43.67L99.14 43.67C98.87 43.67 98.51 43.67 98.14 43.67C97.33 43.67 96.78 44.03 96.42 44.85C95.51 46.94 93.7 51.75 93.7 51.75C93.51 52.29 93.42 52.66 92.88 52.66C92.42 52.66 92.24 52.29 92.15 51.75C91.61 49.21 90.97 46.12 90.43 43.67C89.34 43.67 88.43 43.67 87.34 43.67C88.07 46.85 88.79 49.84 89.43 52.75C89.7 54.02 90.06 55.29 91.7 55.2C92.42 55.2 93.42 55.2 94.15 55.2C95.06 55.2 95.51 54.56 95.97 53.29L98.6 46.3C98.87 45.57 98.96 45.48 99.14 45.48C99.33 45.48 99.51 45.57 99.69 46.3L102.32 53.29C102.78 54.56 103.23 55.2 104.14 55.2C104.86 55.2 105.77 55.2 106.59 55.2C108.22 55.2 108.59 54.02 108.86 52.75C109.49 49.84 110.22 46.75 110.95 43.67C110.04 43.67 109.13 43.67 108.04 43.67Z" fill="#231815" fill-opacity="1.000000" fill-rule="nonzero"/>
	<path id="Vector" d="M128.38 48.48L115.4 48.48C115.12 48.48 114.94 48.3 114.94 48.12L114.94 46.75C114.94 46.57 115.12 46.39 115.4 46.39C117.58 46.39 126.02 46.39 128.38 46.39L129.02 46.39C129.02 45.48 129.02 44.67 129.02 43.76C124.02 43.76 119.12 43.67 114.12 43.85C112.04 43.94 111.49 45.85 111.49 48.21C111.49 48.57 111.49 50.11 111.49 50.48C111.49 52.93 111.67 55.47 115.21 55.47C119.75 55.47 124.29 55.47 128.92 55.47C128.92 54.56 128.92 53.65 128.92 52.84L115.31 52.84C115.03 52.84 114.85 52.66 114.85 52.47L114.85 50.93C114.85 50.75 115.03 50.57 115.31 50.57C117.76 50.57 128.92 50.57 128.92 50.57C128.92 49.84 128.92 49.12 128.92 48.48L128.38 48.48Z" fill="#231815" fill-opacity="1.000000" fill-rule="nonzero"/>
	<path id="Vector" d="M149.81 43.67L152.62 43.67L152.62 52.2C152.62 52.38 152.8 52.57 152.99 52.57L165.7 52.57L165.7 55.2C165.7 55.2 153.17 55.2 153.08 55.2C150.53 55.2 149.72 54.2 149.72 51.93C149.81 49.48 149.81 46.39 149.81 43.67Z" fill="#231815" fill-opacity="1.000000" fill-rule="nonzero"/>
	<path id="Vector" d="M101.32 31.59L102.68 31.59C105.14 31.5 105.41 30.23 105.41 28.05C105.41 26.05 104.86 24.6 102.59 24.51L90.7 24.51L87.98 24.51L87.98 36.22L90.7 36.22L90.7 31.68L97.33 31.68L102.23 36.22L106.04 36.22C106.04 36.13 101.32 31.59 101.32 31.59ZM90.79 29.14L90.79 26.96C91.52 26.96 99.78 26.96 101.69 26.96C101.87 26.96 102.05 27.14 102.05 27.32L102.05 28.69C102.05 28.87 101.87 29.05 101.69 29.05L90.79 29.14Z" fill="#231815" fill-opacity="1.000000" fill-rule="nonzero"/>
</svg>
