<svg width="21.272705" height="21.272705" viewBox="0 0 21.2727 21.2727" fill="none" xmlns="http://www.w3.org/2000/svg" xmlns:xlink="http://www.w3.org/1999/xlink">
	<desc>
			Created with Pixso.
	</desc>
	<defs/>
	<path id="Vector" d="M10.19 19.27C5.18 19.27 1.1 15.2 1.1 10.19C1.1 5.18 5.18 1.1 10.19 1.1C15.2 1.1 19.27 5.18 19.27 10.19C19.27 15.2 15.2 19.27 10.19 19.27ZM10.19 2.43C5.91 2.43 2.43 5.92 2.43 10.19C2.43 14.46 5.91 17.94 10.19 17.94C14.47 17.94 17.94 14.46 17.94 10.19C17.94 5.92 14.47 2.43 10.19 2.43Z" fill="#231815" fill-opacity="1.000000" fill-rule="nonzero"/>
	<path id="Vector" d="M19.5 20.16C19.33 20.16 19.16 20.1 19.03 19.96L17.25 18.19C17 17.94 17 17.51 17.25 17.25C17.51 17 17.93 17 18.19 17.25L19.96 19.03C20.22 19.28 20.22 19.71 19.96 19.96C19.83 20.1 19.66 20.16 19.5 20.16Z" fill="#231815" fill-opacity="1.000000" fill-rule="nonzero"/>
	<g opacity="0.000000"/>
</svg>
