<?xml version="1.0" encoding="UTF-8"?>
<svg xmlns="http://www.w3.org/2000/svg" xmlns:xlink="http://www.w3.org/1999/xlink" width="48px" height="29px" viewBox="0 0 48 29" version="1.1">
<g id="surface1">
<path style=" stroke:none;fill-rule:nonzero;fill:rgb(85.09804%,13.333334%,16.470589%);fill-opacity:1;" d="M 28.507812 14.433594 C 28.507812 22.246094 22.183594 28.578125 14.382812 28.578125 C 6.582031 28.578125 0.257812 22.246094 0.257812 14.433594 C 0.257812 6.621094 6.582031 0.289062 14.382812 0.289062 C 22.183594 0.289062 28.507812 6.621094 28.507812 14.433594 "/>
<path style=" stroke:none;fill-rule:nonzero;fill:rgb(93.333334%,62.352943%,17.647059%);fill-opacity:1;" d="M 33.347656 0.285156 C 29.695312 0.285156 26.371094 1.671875 23.863281 3.949219 C 23.351562 4.414062 22.875 4.914062 22.4375 5.445312 L 25.292969 5.445312 C 25.683594 5.921875 26.042969 6.421875 26.367188 6.945312 L 21.359375 6.945312 C 21.058594 7.425781 20.789062 7.925781 20.546875 8.441406 L 27.183594 8.441406 C 27.410156 8.929688 27.609375 9.429688 27.78125 9.9375 L 19.949219 9.9375 C 19.785156 10.429688 19.648438 10.929688 19.539062 11.4375 L 28.191406 11.4375 C 28.402344 12.421875 28.507812 13.425781 28.507812 14.433594 C 28.507812 16.003906 28.253906 17.515625 27.78125 18.925781 L 19.949219 18.925781 C 20.121094 19.4375 20.320312 19.9375 20.546875 20.425781 L 27.183594 20.425781 C 26.941406 20.9375 26.667969 21.441406 26.367188 21.921875 L 21.359375 21.921875 C 21.6875 22.445312 22.046875 22.945312 22.4375 23.417969 L 25.289062 23.417969 C 24.851562 23.953125 24.375 24.453125 23.863281 24.917969 C 26.371094 27.191406 29.695312 28.578125 33.347656 28.578125 C 41.148438 28.578125 47.472656 22.246094 47.472656 14.433594 C 47.472656 6.621094 41.148438 0.289062 33.347656 0.289062 "/>
<path style=" stroke:none;fill-rule:nonzero;fill:rgb(0%,0%,0%);fill-opacity:1;" d="M 45.589844 22.316406 C 45.589844 22.066406 45.792969 21.859375 46.042969 21.859375 C 46.296875 21.859375 46.5 22.066406 46.5 22.316406 C 46.5 22.570312 46.296875 22.773438 46.042969 22.773438 C 45.792969 22.773438 45.589844 22.570312 45.589844 22.316406 Z M 46.042969 22.664062 C 46.234375 22.664062 46.390625 22.507812 46.390625 22.316406 C 46.390625 22.125 46.234375 21.972656 46.046875 21.96875 L 46.042969 21.96875 C 45.851562 21.96875 45.699219 22.125 45.699219 22.316406 C 45.699219 22.507812 45.851562 22.664062 46.042969 22.664062 Z M 45.984375 22.519531 L 45.890625 22.519531 L 45.890625 22.117188 L 46.058594 22.117188 C 46.09375 22.117188 46.128906 22.117188 46.160156 22.136719 C 46.195312 22.160156 46.210938 22.199219 46.210938 22.238281 C 46.210938 22.28125 46.1875 22.324219 46.144531 22.339844 L 46.214844 22.519531 L 46.113281 22.519531 L 46.050781 22.359375 L 45.984375 22.359375 Z M 45.984375 22.289062 L 46.035156 22.289062 C 46.054688 22.289062 46.074219 22.292969 46.09375 22.28125 C 46.105469 22.273438 46.113281 22.253906 46.113281 22.238281 C 46.113281 22.21875 46.105469 22.207031 46.09375 22.195312 C 46.078125 22.1875 46.050781 22.1875 46.03125 22.1875 L 45.984375 22.1875 Z M 11.085938 15.980469 C 10.921875 15.960938 10.851562 15.957031 10.742188 15.957031 C 9.875 15.957031 9.433594 16.257812 9.433594 16.84375 C 9.433594 17.210938 9.648438 17.441406 9.984375 17.441406 C 10.609375 17.441406 11.058594 16.84375 11.085938 15.980469 Z M 12.199219 18.582031 L 10.929688 18.582031 L 10.957031 17.976562 C 10.570312 18.453125 10.054688 18.683594 9.351562 18.683594 C 8.519531 18.683594 7.949219 18.03125 7.949219 17.085938 C 7.949219 15.667969 8.941406 14.839844 10.644531 14.839844 C 10.816406 14.839844 11.039062 14.855469 11.265625 14.882812 C 11.316406 14.691406 11.328125 14.609375 11.328125 14.503906 C 11.328125 14.117188 11.058594 13.972656 10.34375 13.972656 C 9.59375 13.964844 8.976562 14.152344 8.722656 14.238281 C 8.738281 14.140625 8.933594 12.925781 8.933594 12.925781 C 9.699219 12.699219 10.203125 12.617188 10.769531 12.617188 C 12.085938 12.617188 12.78125 13.207031 12.78125 14.328125 C 12.785156 14.625 12.734375 14.996094 12.65625 15.484375 C 12.523438 16.328125 12.238281 18.140625 12.199219 18.582031 Z M 7.308594 18.582031 L 5.773438 18.582031 L 6.652344 13.066406 L 4.691406 18.582031 L 3.648438 18.582031 L 3.519531 13.097656 L 2.59375 18.582031 L 1.160156 18.582031 L 2.359375 11.40625 L 4.5625 11.40625 L 4.695312 15.421875 L 6.042969 11.40625 L 8.496094 11.40625 L 7.308594 18.582031 M 35.242188 15.980469 C 35.082031 15.960938 35.007812 15.957031 34.898438 15.957031 C 34.03125 15.957031 33.589844 16.257812 33.589844 16.84375 C 33.589844 17.210938 33.804688 17.441406 34.140625 17.441406 C 34.765625 17.441406 35.214844 16.84375 35.242188 15.980469 Z M 36.355469 18.582031 L 35.085938 18.582031 L 35.113281 17.976562 C 34.726562 18.453125 34.210938 18.683594 33.507812 18.683594 C 32.675781 18.683594 32.105469 18.03125 32.105469 17.085938 C 32.105469 15.667969 33.097656 14.839844 34.800781 14.839844 C 34.972656 14.839844 35.195312 14.855469 35.425781 14.882812 C 35.472656 14.691406 35.484375 14.609375 35.484375 14.503906 C 35.484375 14.117188 35.21875 13.972656 34.5 13.972656 C 33.75 13.964844 33.132812 14.152344 32.878906 14.238281 C 32.894531 14.140625 33.089844 12.925781 33.089844 12.925781 C 33.855469 12.699219 34.359375 12.617188 34.925781 12.617188 C 36.242188 12.617188 36.941406 13.207031 36.9375 14.328125 C 36.941406 14.625 36.890625 14.996094 36.8125 15.484375 C 36.679688 16.328125 36.394531 18.140625 36.355469 18.582031 Z M 19.015625 18.492188 C 18.59375 18.625 18.269531 18.683594 17.914062 18.683594 C 17.128906 18.683594 16.703125 18.230469 16.703125 17.398438 C 16.691406 17.140625 16.8125 16.464844 16.910156 15.84375 C 17 15.300781 17.578125 11.863281 17.578125 11.863281 L 19.101562 11.863281 L 18.921875 12.746094 L 19.84375 12.746094 L 19.636719 14.148438 L 18.710938 14.148438 C 18.535156 15.257812 18.28125 16.640625 18.277344 16.824219 C 18.277344 17.125 18.4375 17.257812 18.804688 17.257812 C 18.980469 17.257812 19.113281 17.238281 19.21875 17.199219 L 19.015625 18.492188 M 23.6875 18.445312 C 23.164062 18.605469 22.660156 18.683594 22.125 18.683594 C 20.417969 18.679688 19.527344 17.789062 19.527344 16.078125 C 19.527344 14.085938 20.660156 12.617188 22.195312 12.617188 C 23.453125 12.617188 24.253906 13.4375 24.253906 14.726562 C 24.253906 15.15625 24.199219 15.574219 24.066406 16.164062 L 21.03125 16.164062 C 20.929688 17.007812 21.46875 17.363281 22.355469 17.363281 C 22.902344 17.363281 23.394531 17.25 23.941406 16.996094 Z M 22.832031 14.984375 C 22.839844 14.863281 22.992188 13.945312 22.121094 13.945312 C 21.636719 13.945312 21.289062 14.316406 21.148438 14.984375 Z M 13.121094 14.589844 C 13.121094 15.328125 13.476562 15.839844 14.289062 16.21875 C 14.910156 16.511719 15.003906 16.597656 15.003906 16.863281 C 15.003906 17.226562 14.730469 17.390625 14.125 17.390625 C 13.667969 17.390625 13.242188 17.320312 12.75 17.160156 C 12.75 17.160156 12.546875 18.449219 12.539062 18.507812 C 12.886719 18.585938 13.199219 18.65625 14.136719 18.683594 C 15.753906 18.683594 16.5 18.066406 16.5 16.730469 C 16.5 15.929688 16.1875 15.460938 15.417969 15.105469 C 14.777344 14.808594 14.703125 14.746094 14.703125 14.472656 C 14.703125 14.15625 14.957031 13.996094 15.453125 13.996094 C 15.753906 13.996094 16.164062 14.027344 16.554688 14.082031 L 16.773438 12.730469 C 16.375 12.667969 15.773438 12.617188 15.421875 12.617188 C 13.707031 12.617188 13.113281 13.511719 13.121094 14.589844 M 31.144531 12.769531 C 31.570312 12.769531 31.96875 12.882812 32.515625 13.15625 L 32.765625 11.597656 C 32.542969 11.511719 31.75 10.992188 31.082031 10.992188 C 30.054688 10.992188 29.1875 11.503906 28.578125 12.34375 C 27.6875 12.050781 27.324219 12.644531 26.875 13.238281 L 26.476562 13.332031 C 26.503906 13.136719 26.53125 12.941406 26.523438 12.746094 L 25.117188 12.746094 C 24.921875 14.550781 24.582031 16.382812 24.316406 18.191406 L 24.246094 18.582031 L 25.78125 18.582031 C 26.035156 16.914062 26.175781 15.847656 26.261719 15.125 L 26.839844 14.804688 C 26.925781 14.484375 27.195312 14.375 27.738281 14.386719 C 27.664062 14.78125 27.628906 15.183594 27.628906 15.585938 C 27.628906 17.492188 28.65625 18.683594 30.308594 18.683594 C 30.734375 18.683594 31.097656 18.625 31.664062 18.472656 L 31.933594 16.835938 C 31.425781 17.085938 31.007812 17.207031 30.628906 17.207031 C 29.738281 17.207031 29.199219 16.546875 29.199219 15.457031 C 29.199219 13.878906 30 12.769531 31.144531 12.769531 "/>
<path style=" stroke:none;fill-rule:nonzero;fill:rgb(100%,100%,100%);fill-opacity:1;" d="M 7.75 18.15625 L 6.214844 18.15625 L 7.09375 12.640625 L 5.132812 18.15625 L 4.089844 18.15625 L 3.960938 12.671875 L 3.035156 18.15625 L 1.601562 18.15625 L 2.800781 10.980469 L 5.003906 10.980469 L 5.066406 15.421875 L 6.554688 10.980469 L 8.9375 10.980469 L 7.75 18.15625 "/>
<path style=" stroke:none;fill-rule:nonzero;fill:rgb(0%,0%,0%);fill-opacity:1;" d="M 44.128906 11.40625 L 43.789062 13.480469 C 43.371094 12.925781 42.917969 12.527344 42.324219 12.527344 C 41.550781 12.527344 40.847656 13.113281 40.386719 13.980469 C 39.742188 13.847656 39.078125 13.621094 39.078125 13.621094 L 39.078125 13.625 C 39.128906 13.140625 39.152344 12.847656 39.148438 12.746094 L 37.738281 12.746094 C 37.546875 14.550781 37.207031 16.382812 36.9375 18.191406 L 36.867188 18.582031 L 38.402344 18.582031 C 38.609375 17.234375 38.769531 16.117188 38.886719 15.230469 C 39.410156 14.753906 39.671875 14.339844 40.199219 14.367188 C 39.964844 14.9375 39.828125 15.589844 39.828125 16.261719 C 39.828125 17.71875 40.566406 18.683594 41.679688 18.683594 C 42.242188 18.683594 42.675781 18.488281 43.09375 18.039062 L 43.023438 18.582031 L 44.472656 18.582031 L 45.640625 11.40625 Z M 42.210938 17.234375 C 41.6875 17.234375 41.425781 16.847656 41.425781 16.082031 C 41.425781 14.9375 41.917969 14.121094 42.613281 14.121094 C 43.140625 14.121094 43.425781 14.523438 43.425781 15.265625 C 43.425781 16.421875 42.925781 17.234375 42.210938 17.234375 Z M 42.210938 17.234375 "/>
<path style=" stroke:none;fill-rule:nonzero;fill:rgb(100%,100%,100%);fill-opacity:1;" d="M 11.527344 15.554688 C 11.363281 15.539062 11.292969 15.53125 11.183594 15.53125 C 10.316406 15.53125 9.875 15.832031 9.875 16.421875 C 9.875 16.785156 10.089844 17.015625 10.425781 17.015625 C 11.050781 17.015625 11.5 16.417969 11.527344 15.554688 Z M 12.640625 18.15625 L 11.371094 18.15625 L 11.398438 17.550781 C 11.011719 18.027344 10.496094 18.257812 9.792969 18.257812 C 8.960938 18.257812 8.390625 17.605469 8.390625 16.664062 C 8.390625 15.242188 9.382812 14.414062 11.085938 14.414062 C 11.257812 14.414062 11.480469 14.429688 11.707031 14.457031 C 11.757812 14.265625 11.769531 14.183594 11.769531 14.078125 C 11.769531 13.691406 11.503906 13.550781 10.785156 13.550781 C 10.035156 13.539062 9.417969 13.726562 9.164062 13.8125 C 9.179688 13.714844 9.375 12.5 9.375 12.5 C 10.140625 12.273438 10.644531 12.191406 11.210938 12.191406 C 12.527344 12.191406 13.226562 12.78125 13.222656 13.902344 C 13.226562 14.203125 13.175781 14.570312 13.097656 15.058594 C 12.964844 15.902344 12.679688 17.714844 12.640625 18.15625 Z M 33.210938 11.175781 L 32.957031 12.730469 C 32.410156 12.457031 32.015625 12.34375 31.589844 12.34375 C 30.441406 12.34375 29.640625 13.453125 29.640625 15.03125 C 29.640625 16.121094 30.179688 16.78125 31.070312 16.78125 C 31.449219 16.78125 31.867188 16.664062 32.375 16.410156 L 32.105469 18.046875 C 31.539062 18.199219 31.175781 18.257812 30.75 18.257812 C 29.097656 18.257812 28.070312 17.066406 28.070312 15.160156 C 28.070312 12.59375 29.492188 10.800781 31.523438 10.800781 C 32.191406 10.800781 32.984375 11.085938 33.210938 11.175781 M 35.683594 15.554688 C 35.523438 15.539062 35.453125 15.53125 35.339844 15.53125 C 34.472656 15.53125 34.03125 15.832031 34.03125 16.421875 C 34.03125 16.785156 34.246094 17.015625 34.582031 17.015625 C 35.207031 17.015625 35.65625 16.417969 35.683594 15.554688 Z M 36.800781 18.15625 L 35.527344 18.15625 L 35.558594 17.550781 C 35.167969 18.027344 34.652344 18.257812 33.949219 18.257812 C 33.121094 18.257812 32.550781 17.605469 32.550781 16.664062 C 32.550781 15.242188 33.539062 14.414062 35.242188 14.414062 C 35.414062 14.414062 35.636719 14.429688 35.867188 14.457031 C 35.914062 14.265625 35.925781 14.183594 35.925781 14.078125 C 35.925781 13.691406 35.660156 13.550781 34.941406 13.550781 C 34.191406 13.539062 33.574219 13.726562 33.320312 13.8125 C 33.335938 13.714844 33.53125 12.5 33.53125 12.5 C 34.296875 12.273438 34.800781 12.191406 35.367188 12.191406 C 36.683594 12.191406 37.382812 12.78125 37.378906 13.902344 C 37.382812 14.203125 37.332031 14.570312 37.257812 15.058594 C 37.125 15.902344 36.835938 17.714844 36.800781 18.15625 Z M 19.457031 18.066406 C 19.035156 18.199219 18.710938 18.257812 18.355469 18.257812 C 17.570312 18.257812 17.144531 17.804688 17.144531 16.976562 C 17.132812 16.714844 17.257812 16.039062 17.355469 15.417969 C 17.441406 14.875 18.019531 11.4375 18.019531 11.4375 L 19.542969 11.4375 L 19.363281 12.320312 L 20.148438 12.320312 L 19.9375 13.722656 L 19.152344 13.722656 C 18.976562 14.832031 18.722656 16.214844 18.722656 16.398438 C 18.722656 16.699219 18.882812 16.832031 19.246094 16.832031 C 19.421875 16.832031 19.554688 16.8125 19.660156 16.777344 L 19.457031 18.066406 M 24.128906 18.019531 C 23.605469 18.179688 23.101562 18.257812 22.566406 18.257812 C 20.859375 18.253906 19.96875 17.363281 19.96875 15.652344 C 19.96875 13.660156 21.101562 12.191406 22.636719 12.191406 C 23.894531 12.191406 24.695312 13.011719 24.695312 14.300781 C 24.695312 14.730469 24.640625 15.148438 24.507812 15.738281 L 21.472656 15.738281 C 21.371094 16.582031 21.914062 16.9375 22.800781 16.9375 C 23.34375 16.9375 23.835938 16.824219 24.382812 16.570312 Z M 23.273438 14.558594 C 23.28125 14.4375 23.433594 13.519531 22.5625 13.519531 C 22.078125 13.519531 21.730469 13.890625 21.589844 14.558594 Z M 13.5625 14.164062 C 13.5625 14.902344 13.917969 15.414062 14.730469 15.796875 C 15.351562 16.085938 15.445312 16.175781 15.445312 16.4375 C 15.445312 16.804688 15.171875 16.96875 14.566406 16.96875 C 14.109375 16.96875 13.683594 16.894531 13.191406 16.738281 C 13.191406 16.738281 12.992188 18.023438 12.980469 18.085938 C 13.328125 18.160156 13.640625 18.230469 14.578125 18.257812 C 16.195312 18.257812 16.941406 17.640625 16.941406 16.308594 C 16.941406 15.503906 16.628906 15.035156 15.859375 14.679688 C 15.21875 14.382812 15.144531 14.320312 15.144531 14.046875 C 15.144531 13.730469 15.398438 13.570312 15.894531 13.570312 C 16.195312 13.570312 16.605469 13.601562 16.996094 13.65625 L 17.214844 12.304688 C 16.816406 12.242188 16.214844 12.191406 15.867188 12.191406 C 14.148438 12.191406 13.554688 13.085938 13.5625 14.164062 M 44.914062 18.15625 L 43.464844 18.15625 L 43.535156 17.613281 C 43.117188 18.0625 42.683594 18.257812 42.121094 18.257812 C 41.007812 18.257812 40.269531 17.292969 40.269531 15.835938 C 40.269531 13.894531 41.414062 12.257812 42.765625 12.257812 C 43.359375 12.257812 43.8125 12.5 44.230469 13.054688 L 44.570312 10.980469 L 46.082031 10.980469 Z M 42.652344 16.808594 C 43.367188 16.808594 43.867188 15.996094 43.867188 14.839844 C 43.867188 14.101562 43.582031 13.699219 43.054688 13.699219 C 42.359375 13.699219 41.867188 14.511719 41.867188 15.65625 C 41.867188 16.421875 42.132812 16.808594 42.652344 16.808594 Z M 38.179688 12.320312 C 37.988281 14.128906 37.648438 15.957031 37.378906 17.761719 L 37.308594 18.15625 L 38.84375 18.15625 C 39.390625 14.585938 39.523438 13.890625 40.386719 13.976562 C 40.523438 13.246094 40.777344 12.609375 40.96875 12.285156 C 40.324219 12.152344 39.964844 12.515625 39.496094 13.207031 C 39.535156 12.90625 39.601562 12.617188 39.589844 12.320312 L 38.179688 12.320312 M 25.558594 12.320312 C 25.363281 14.128906 25.023438 15.957031 24.757812 17.761719 L 24.6875 18.15625 L 26.222656 18.15625 C 26.769531 14.585938 26.902344 13.890625 27.761719 13.976562 C 27.898438 13.246094 28.152344 12.609375 28.34375 12.285156 C 27.703125 12.152344 27.34375 12.515625 26.875 13.207031 C 26.910156 12.90625 26.976562 12.617188 26.964844 12.320312 L 25.558594 12.320312 M 45.589844 17.699219 C 45.589844 17.445312 45.792969 17.242188 46.042969 17.242188 C 46.296875 17.242188 46.5 17.445312 46.5 17.699219 C 46.5 17.949219 46.296875 18.15625 46.042969 18.15625 C 45.792969 18.15625 45.589844 17.949219 45.589844 17.699219 Z M 46.042969 18.046875 C 46.234375 18.046875 46.390625 17.890625 46.390625 17.699219 C 46.390625 17.507812 46.234375 17.351562 46.046875 17.351562 L 46.042969 17.351562 C 45.851562 17.351562 45.699219 17.507812 45.699219 17.699219 C 45.699219 17.890625 45.851562 18.046875 46.042969 18.046875 Z M 45.984375 17.898438 L 45.890625 17.898438 L 45.890625 17.496094 L 46.058594 17.496094 C 46.09375 17.496094 46.128906 17.5 46.160156 17.519531 C 46.195312 17.539062 46.210938 17.578125 46.210938 17.617188 C 46.210938 17.664062 46.1875 17.707031 46.140625 17.722656 L 46.214844 17.898438 L 46.113281 17.898438 L 46.050781 17.738281 L 45.984375 17.738281 Z M 45.984375 17.671875 L 46.035156 17.671875 C 46.054688 17.671875 46.074219 17.671875 46.089844 17.664062 C 46.105469 17.652344 46.113281 17.636719 46.113281 17.617188 C 46.113281 17.601562 46.105469 17.585938 46.09375 17.574219 C 46.078125 17.566406 46.050781 17.570312 46.03125 17.570312 L 45.984375 17.570312 Z M 45.984375 17.671875 "/>
</g>
</svg>
