<?xml version="1.0" encoding="UTF-8"?>
<svg xmlns="http://www.w3.org/2000/svg" xmlns:xlink="http://www.w3.org/1999/xlink" width="43px" height="14px" viewBox="0 0 43 14" version="1.1">
<g id="surface1">
<path style=" stroke:none;fill-rule:nonzero;fill:rgb(14.509805%,40.000001%,68.627453%);fill-opacity:1;" d="M 18.507812 13.757812 L 15.019531 13.757812 L 17.199219 0.335938 L 20.6875 0.335938 Z M 12.085938 0.335938 L 8.761719 9.566406 L 8.367188 7.578125 L 8.371094 7.578125 L 7.195312 1.542969 C 7.195312 1.542969 7.054688 0.335938 5.542969 0.335938 L 0.0429688 0.335938 L -0.0195312 0.5625 C -0.0195312 0.5625 1.660156 0.914062 3.628906 2.097656 L 6.660156 13.757812 L 10.292969 13.757812 L 15.839844 0.335938 Z M 39.519531 13.757812 L 42.722656 13.757812 L 39.929688 0.335938 L 37.125 0.335938 C 35.832031 0.335938 35.515625 1.335938 35.515625 1.335938 L 30.316406 13.757812 L 33.949219 13.757812 L 34.675781 11.761719 L 39.109375 11.761719 Z M 35.683594 9.007812 L 37.515625 3.988281 L 38.546875 9.007812 Z M 30.585938 3.5625 L 31.085938 0.679688 C 31.085938 0.679688 29.550781 0.0976562 27.949219 0.0976562 C 26.21875 0.0976562 22.109375 0.855469 22.109375 4.539062 C 22.109375 8.007812 26.929688 8.050781 26.929688 9.871094 C 26.929688 11.691406 22.605469 11.363281 21.175781 10.214844 L 20.65625 13.230469 C 20.65625 13.230469 22.214844 13.988281 24.59375 13.988281 C 26.976562 13.988281 30.566406 12.753906 30.566406 9.394531 C 30.566406 5.902344 25.699219 5.578125 25.699219 4.0625 C 25.699219 2.542969 29.09375 2.738281 30.585938 3.5625 Z M 30.585938 3.5625 "/>
<path style=" stroke:none;fill-rule:nonzero;fill:rgb(90.196079%,64.705884%,25.098041%);fill-opacity:1;" d="M 8.371094 7.578125 L 7.195312 1.542969 C 7.195312 1.542969 7.054688 0.335938 5.542969 0.335938 L 0.0429688 0.335938 L -0.0195312 0.5625 C -0.0195312 0.5625 2.621094 1.113281 5.15625 3.167969 C 7.578125 5.132812 8.371094 7.578125 8.371094 7.578125 Z M 8.371094 7.578125 "/>
</g>
</svg>
